<svg width="17" height="17" viewBox="0 0 17 17" fill="none" xmlns="http://www.w3.org/2000/svg">
<path d="M16.1045 5.89552L11.1315 5.17481L8.90839 0.680671C8.84767 0.557624 8.74778 0.458015 8.62438 0.397468C8.31491 0.245124 7.93885 0.372078 7.78412 0.680671L5.56104 5.17481L0.588008 5.89552C0.450902 5.91505 0.325548 5.9795 0.229573 6.07716C0.113546 6.19607 0.0496093 6.35606 0.0518129 6.52196C0.0540165 6.68787 0.12218 6.84611 0.241325 6.96192L3.83938 10.46L2.98932 15.3994C2.96939 15.5143 2.98214 15.6325 3.02613 15.7405C3.07012 15.8486 3.14359 15.9422 3.23821 16.0107C3.33282 16.0792 3.4448 16.1199 3.56145 16.1282C3.67809 16.1365 3.79473 16.1121 3.89814 16.0576L8.34625 13.7256L12.7944 16.0576C12.9158 16.1221 13.0568 16.1436 13.192 16.1201C13.5328 16.0615 13.7619 15.7393 13.7032 15.3994L12.8531 10.46L16.4512 6.96192C16.5491 6.86622 16.6137 6.74122 16.6333 6.6045C16.6862 6.2627 16.4473 5.9463 16.1045 5.89552V5.89552Z" fill="#EDC5A2"/>
</svg>
