<svg width="26" height="18" viewBox="0 0 26 18" fill="none" xmlns="http://www.w3.org/2000/svg">
<path d="M21.9734 12.11L17.7629 7.15963L21.5027 5.02601C21.8681 4.8176 21.9953 4.35235 21.7869 3.98698C21.5785 3.62156 21.1131 3.4943 20.7478 3.70275C20.4351 3.88115 13.3484 7.92419 13.0003 8.1228C12.6505 7.92323 5.56207 3.87922 5.25276 3.70275C4.88734 3.49435 4.42223 3.62145 4.21368 3.98698C4.00527 4.35235 4.13243 4.81755 4.4979 5.02601L8.23768 7.15963L4.02721 12.11C3.75466 12.4305 3.79346 12.9111 4.11394 13.1837C4.43437 13.4563 4.91527 13.4173 5.18766 13.097L9.58415 7.92785L12.6228 9.66147C12.8568 9.79492 13.1439 9.79487 13.3777 9.66147L16.4164 7.92785L20.8129 13.097C21.0855 13.4175 21.5664 13.4561 21.8866 13.1837C22.2071 12.9112 22.2459 12.4305 21.9734 12.11Z" fill="#EDC5A2"/>
<path d="M23.7148 0.113281H2.28516C1.02512 0.113281 0 1.1384 0 2.39844V15.6016C0 16.8616 1.02512 17.8867 2.28516 17.8867H23.7148C24.9749 17.8867 26 16.8616 26 15.6016V2.39844C26 1.1384 24.9749 0.113281 23.7148 0.113281ZM24.4766 15.6016C24.4766 16.0216 24.1349 16.3633 23.7148 16.3633H2.28516C1.86514 16.3633 1.52344 16.0216 1.52344 15.6016V2.39844C1.52344 1.97843 1.86514 1.63672 2.28516 1.63672H23.7148C24.1349 1.63672 24.4766 1.97843 24.4766 2.39844V15.6016Z" fill="#EDC5A2"/>
</svg>
