<svg width="24" height="30" viewBox="0 0 24 30" fill="none" xmlns="http://www.w3.org/2000/svg">
<g clip-path="url(#clip0_34_1303)">
<path d="M22.8716 7.8612C21.8021 4.4058 19.0239 1.60473 15.6212 0.550921C11.9977 -0.571208 8.2201 0.0379326 5.25713 2.22213C3.8374 3.26868 2.65932 4.64909 1.85031 6.21395C1.01418 7.83131 0.572266 9.65217 0.572266 11.4798C0.572266 13.9728 1.36088 16.342 2.85291 18.3312L12.0009 30L21.1376 18.3461L21.149 18.3312C23.3818 15.3541 24.0097 11.5379 22.8716 7.8612ZM19.7478 17.269L12.0009 27.1513L4.254 17.269C2.9957 15.588 2.33055 13.5863 2.33055 11.4798C2.33055 8.40166 3.81461 5.46993 6.30045 3.63746C8.80908 1.78819 12.0168 1.27543 15.1011 2.23051C17.9577 3.11516 20.2916 5.47192 21.1921 8.38104C22.1605 11.5101 21.6341 14.7491 19.7478 17.269Z" fill="#EDC5A2"/>
<path d="M12.0015 5.32568C8.6083 5.32568 5.84766 8.08633 5.84766 11.4796C5.84766 14.8728 8.6083 17.6334 12.0015 17.6334C15.3947 17.6334 18.1554 14.8728 18.1554 11.4796C18.1554 8.08633 15.3947 5.32568 12.0015 5.32568ZM12.0015 15.8752C9.57779 15.8752 7.60588 13.9033 7.60588 11.4796C7.60588 9.05582 9.57773 7.08391 12.0015 7.08391C14.4253 7.08391 16.3972 9.05576 16.3972 11.4796C16.3972 13.9033 14.4253 15.8752 12.0015 15.8752Z" fill="#EDC5A2"/>
</g>
<defs>
<clipPath id="clip0_34_1303">
<rect width="24" height="30" fill="white"/>
</clipPath>
</defs>
</svg>
