<svg width="18" height="17" viewBox="0 0 18 17" fill="none" xmlns="http://www.w3.org/2000/svg">
<path d="M16.7871 5.89552L11.8141 5.17481L9.591 0.680671C9.53029 0.557624 9.43039 0.458015 9.307 0.397468C8.99753 0.245124 8.62147 0.372078 8.46673 0.680671L6.24366 5.17481L1.27063 5.89552C1.13352 5.91505 1.00816 5.9795 0.912191 6.07716C0.796163 6.19607 0.732227 6.35606 0.73443 6.52196C0.736634 6.68787 0.804797 6.84611 0.923942 6.96192L4.522 10.46L3.67194 15.3994C3.65201 15.5143 3.66476 15.6325 3.70875 15.7405C3.75274 15.8486 3.82621 15.9422 3.92082 16.0107C4.01544 16.0792 4.12742 16.1199 4.24406 16.1282C4.36071 16.1365 4.47735 16.1121 4.58076 16.0576L9.02887 13.7256L13.477 16.0576C13.5984 16.1221 13.7394 16.1436 13.8746 16.1201C14.2154 16.0615 14.4446 15.7393 14.3858 15.3994L13.5357 10.46L17.1338 6.96192C17.2317 6.86622 17.2964 6.74122 17.316 6.6045C17.3688 6.2627 17.1299 5.9463 16.7871 5.89552V5.89552Z" fill="#EDC5A2"/>
</svg>
