<svg width="15" height="15" viewBox="0 0 15 15" fill="none" xmlns="http://www.w3.org/2000/svg">
<path d="M12.8049 2.1875C11.3937 0.78125 9.51219 0 7.52613 0C3.39721 0 0.052264 3.33333 0.052264 7.44792C0.052264 8.75 0.418118 10.0521 1.0453 11.1458L0 15L3.97213 13.9583C5.06969 14.5313 6.27178 14.8438 7.52613 14.8438C11.6551 14.8438 15 11.5104 15 7.39583C14.9477 5.46875 14.216 3.59375 12.8049 2.1875ZM11.1324 10.1042C10.9756 10.5208 10.2439 10.9375 9.87805 10.9896C9.56446 11.0417 9.14634 11.0417 8.72822 10.9375C8.4669 10.8333 8.10105 10.7292 7.68293 10.5208C5.80139 9.73958 4.5993 7.86458 4.49477 7.70833C4.39025 7.60417 3.7108 6.71875 3.7108 5.78125C3.7108 4.84375 4.18118 4.42708 4.33798 4.21875C4.49477 4.01042 4.70383 4.01042 4.86063 4.01042C4.96516 4.01042 5.12195 4.01042 5.22648 4.01042C5.33101 4.01042 5.4878 3.95833 5.6446 4.32292C5.80139 4.6875 6.16725 5.625 6.21951 5.67708C6.27178 5.78125 6.27178 5.88542 6.21951 5.98958C6.16725 6.09375 6.11498 6.19792 6.01045 6.30208C5.90592 6.40625 5.80139 6.5625 5.74913 6.61458C5.6446 6.71875 5.54007 6.82292 5.6446 6.97917C5.74913 7.1875 6.11498 7.76042 6.6899 8.28125C7.4216 8.90625 7.99652 9.11458 8.20558 9.21875C8.41463 9.32292 8.51916 9.27083 8.62369 9.16667C8.72822 9.0625 9.09408 8.64583 9.19861 8.4375C9.30314 8.22917 9.45993 8.28125 9.61672 8.33333C9.77352 8.38542 10.7143 8.85417 10.8711 8.95833C11.0801 9.0625 11.1847 9.11458 11.2369 9.16667C11.2892 9.32292 11.2892 9.6875 11.1324 10.1042Z" fill="white"/>
</svg>
