<svg width="22" height="17" viewBox="0 0 22 17" fill="none" xmlns="http://www.w3.org/2000/svg">
<path d="M20.8209 5.16667H18.3278L17.6348 3.43333C16.9227 1.65125 15.2233 0.5 13.3048 0.5H8.01613C6.09805 0.5 4.39818 1.65125 3.68567 3.43333L2.99273 5.16667H0.499981C0.174749 5.16667 -0.0638652 5.4725 0.0152565 5.78792L0.265114 6.78792C0.3205 7.01042 0.520386 7.16667 0.749839 7.16667H1.58561C1.02635 7.65542 0.666137 8.36583 0.666137 9.16667V11.1667C0.666137 11.8383 0.922657 12.4446 1.33242 12.9137V15.1667C1.33242 15.9029 1.92917 16.5 2.665 16.5H3.99758C4.73341 16.5 5.33015 15.9029 5.33015 15.1667V13.8333H15.9908V15.1667C15.9908 15.9029 16.5875 16.5 17.3233 16.5H18.6559C19.3917 16.5 19.9885 15.9029 19.9885 15.1667V12.9137C20.3983 12.445 20.6548 11.8387 20.6548 11.1667V9.16667C20.6548 8.36583 20.2946 7.65542 19.7357 7.16667H20.5715C20.8009 7.16667 21.0008 7.01042 21.0562 6.78792L21.3061 5.78792C21.3848 5.4725 21.1462 5.16667 20.8209 5.16667ZM6.1601 4.42375C6.46368 3.66458 7.19867 3.16667 8.01613 3.16667H13.3048C14.1222 3.16667 14.8572 3.66458 15.1608 4.42375L15.9908 6.5H5.33015L6.1601 4.42375ZM3.99758 11.1583C3.19803 11.1583 2.665 10.6267 2.665 9.82917C2.665 9.03167 3.19803 8.5 3.99758 8.5C4.79712 8.5 5.99644 9.69625 5.99644 10.4938C5.99644 11.2913 4.79712 11.1583 3.99758 11.1583ZM17.3233 11.1583C16.5238 11.1583 15.3245 11.2913 15.3245 10.4938C15.3245 9.69625 16.5238 8.5 17.3233 8.5C18.1229 8.5 18.6559 9.03167 18.6559 9.82917C18.6559 10.6267 18.1229 11.1583 17.3233 11.1583Z" fill="white"/>
</svg>
