<svg width="15" height="15" viewBox="0 0 15 15" fill="none" xmlns="http://www.w3.org/2000/svg">
<path fill-rule="evenodd" clip-rule="evenodd" d="M2.11887 11.0078L1.41731 13.5945L4.09228 12.893L4.43487 13.0718C5.39722 13.5742 6.44131 13.8438 7.52613 13.8438C11.1015 13.8438 13.9927 10.9622 14 7.40937C13.951 5.72115 13.31 4.10264 12.099 2.89583C10.874 1.67513 9.24584 1 7.52613 1C3.94621 1 1.05226 3.88889 1.05226 7.44792C1.05226 8.56857 1.36894 9.69996 1.91279 10.6484L2.11887 11.0078ZM15 7.39583C15 11.5104 11.6551 14.8438 7.52613 14.8438C6.27178 14.8438 5.06969 14.5313 3.97213 13.9583L0 15L1.0453 11.1458C0.418118 10.0521 0.052264 8.75 0.052264 7.44792C0.052264 3.33333 3.39721 0 7.52613 0C9.51219 0 11.3937 0.78125 12.8049 2.1875C14.216 3.59375 14.9477 5.46875 15 7.39583ZM5.6446 6.97917C5.74913 7.1875 6.11498 7.76042 6.6899 8.28125C7.31068 8.8115 7.81861 9.04185 8.08601 9.16311C8.13379 9.18478 8.17388 9.20296 8.20558 9.21875C8.41463 9.32292 8.51916 9.27083 8.62369 9.16667C8.72822 9.0625 9.09408 8.64583 9.19861 8.4375C9.30314 8.22917 9.45993 8.28125 9.61672 8.33333C9.77352 8.38542 10.7143 8.85417 10.8711 8.95833C11.0801 9.06249 11.1847 9.11458 11.2369 9.16667C11.2892 9.32292 11.2892 9.6875 11.1324 10.1042C10.9756 10.5208 10.2439 10.9375 9.87805 10.9896C9.56446 11.0417 9.14634 11.0417 8.72822 10.9375C8.6491 10.906 8.56039 10.8744 8.46355 10.84C8.24056 10.7607 7.97445 10.6661 7.68293 10.5208C5.8536 9.76126 4.66653 7.96778 4.506 7.72525C4.50142 7.71833 4.49767 7.71267 4.49477 7.70833C4.39025 7.60417 3.7108 6.71875 3.7108 5.78125C3.7108 4.96778 4.06495 4.54645 4.26109 4.3131C4.291 4.27752 4.31723 4.24631 4.33798 4.21875C4.49477 4.01042 4.70383 4.01042 4.86063 4.01042H5.22648C5.23757 4.01042 5.24925 4.00983 5.26146 4.00922C5.36428 4.00405 5.50444 3.99702 5.6446 4.32292C5.698 4.44709 5.77565 4.63771 5.8569 4.83717C6.01422 5.22338 6.18505 5.64274 6.21951 5.67708C6.27178 5.78125 6.27178 5.88542 6.21951 5.98958C6.16725 6.09375 6.11498 6.19792 6.01045 6.30208C5.94922 6.3631 5.88799 6.44199 5.83726 6.50735C5.80139 6.55356 5.77078 6.59301 5.74913 6.61458C5.6446 6.71875 5.54007 6.82292 5.6446 6.97917ZM3.69893 8.31792C3.55178 8.14405 3.3515 7.85521 3.17649 7.51887C2.95676 7.09658 2.7108 6.47577 2.7108 5.78125C2.7108 5.13195 2.87701 4.62758 3.09106 4.24159C3.26964 3.91957 3.56508 3.58273 3.53898 3.61741C4.00046 3.00424 4.6618 3.00902 4.84127 3.01032C4.84853 3.01037 4.85499 3.01042 4.86063 3.01042H5.22648C5.05704 3.01042 5.49636 2.96857 5.82855 3.11904C6.2255 3.29884 6.43929 3.63961 6.56325 3.92784C6.62057 4.06113 6.70497 4.26831 6.78849 4.47333C6.82542 4.56398 6.86217 4.6542 6.89634 4.73743C6.95488 4.88003 7.00676 5.00454 7.04601 5.09436C7.04614 5.09467 7.04628 5.09497 7.04641 5.09528L7.11331 5.22862C7.30717 5.615 7.30717 6.05167 7.11331 6.43804C7.11107 6.44251 7.10872 6.44721 7.10626 6.45215C7.05822 6.54832 6.96641 6.73209 6.79842 6.92304C6.935 7.10331 7.12108 7.32103 7.35066 7.53048C7.6946 7.82274 7.98016 7.99551 8.21185 8.11466C8.23297 8.0875 8.25227 8.06189 8.26917 8.03853C8.29781 7.99894 8.30889 7.98044 8.30943 7.9799C8.38727 7.8274 8.50681 7.65876 8.69062 7.52256C8.88617 7.37765 9.1002 7.30974 9.29784 7.29184C9.59919 7.26454 9.87471 7.36375 9.92507 7.38188C9.92833 7.38305 9.93064 7.38388 9.93196 7.38432C10.0391 7.4199 10.1857 7.48801 10.2817 7.53307C10.4034 7.59018 10.5479 7.6605 10.6899 7.73126C10.9059 7.83888 11.1909 7.98418 11.3563 8.08284C11.4404 8.12475 11.526 8.16774 11.5972 8.20716C11.6692 8.24707 11.8123 8.32832 11.9428 8.45833L12.1103 8.62522L12.1853 8.84945C12.2709 9.10532 12.2785 9.38565 12.2599 9.61778C12.2394 9.87285 12.1799 10.1598 12.0683 10.4564C11.8737 10.9734 11.4233 11.3288 11.1319 11.5199C10.8234 11.7222 10.4133 11.9203 10.032 11.9777C9.5941 12.049 9.04166 12.0462 8.48648 11.9078L8.42081 11.8915L8.35795 11.8664C8.32659 11.8539 8.27459 11.8354 8.20753 11.8115C7.98962 11.734 7.61267 11.5998 7.26816 11.4313C5.23833 10.5746 3.93883 8.67999 3.69893 8.31792Z" fill="white"/>
</svg>
