<svg width="118" height="32" viewBox="0 0 118 32" fill="none" xmlns="http://www.w3.org/2000/svg">
<path fill-rule="evenodd" clip-rule="evenodd" d="M34.7151 8.82824H37.3347C37.9094 8.84209 38.4808 8.73607 39.0122 8.51693C39.4616 8.3247 39.8613 8.03254 40.1808 7.66267C40.4963 7.28768 40.7291 6.85026 40.8639 6.37906C41.0148 5.85898 41.0893 5.31975 41.0852 4.77824C41.0861 4.27533 41.0272 3.77411 40.9096 3.28513C40.8002 2.8179 40.5944 2.37869 40.3054 1.99562C40.0027 1.60539 39.6095 1.29473 39.1598 1.09045C38.5915 0.846393 37.9764 0.730532 37.3583 0.751111H34.7159V8.8275L34.7151 8.82824ZM35.2122 8.39818V1.18121H37.2778C37.4996 1.18264 37.7213 1.19594 37.9417 1.22104C38.1929 1.24828 38.4403 1.30321 38.6794 1.38481C38.9314 1.47155 39.1708 1.59137 39.3913 1.74113C39.6343 1.91001 39.8414 2.12539 40.0006 2.37481C40.1943 2.6805 40.3392 3.01451 40.43 3.36481C40.5476 3.82675 40.6027 4.3024 40.5938 4.77899C40.612 5.37468 40.5143 5.96823 40.3061 6.52662C40.1423 6.94737 39.8856 7.32565 39.5551 7.63318C39.2578 7.90267 38.9054 8.10407 38.5223 8.22334C38.1551 8.33854 37.7726 8.39773 37.3877 8.39891H35.2196L35.2122 8.39818ZM41.9364 7.09755C42.0444 7.45028 42.2198 7.77872 42.4528 8.06468C42.6803 8.34123 42.9653 8.565 43.2879 8.7205C44.0138 9.04507 44.8437 9.04507 45.5696 8.7205C45.8921 8.56482 46.177 8.34108 46.4047 8.06468C46.6372 7.77838 46.8125 7.45005 46.9211 7.09755C47.0394 6.71663 47.0983 6.31977 47.0959 5.92091C47.0986 5.52397 47.0396 5.12902 46.9211 4.75017C46.8108 4.39842 46.6356 4.07041 46.4047 3.78304C46.1786 3.503 45.8934 3.27631 45.5696 3.11911C44.8436 2.79482 44.0139 2.79482 43.2879 3.11911C42.964 3.2761 42.6788 3.50283 42.4528 3.78304C42.2213 4.07004 42.0461 4.39816 41.9364 4.75017C41.8179 5.12902 41.7589 5.52397 41.7616 5.92091C41.7592 6.31977 41.8181 6.71663 41.9364 7.09755V7.09755ZM42.3377 4.91984C42.4288 4.61194 42.5739 4.32268 42.7663 4.06558C42.9529 3.81829 43.192 3.61547 43.4664 3.47173C44.072 3.17833 44.7787 3.17833 45.3844 3.47173C45.6587 3.61567 45.8977 3.81846 46.0845 4.06558C46.2768 4.32268 46.422 4.61194 46.5131 4.91984C46.7088 5.57287 46.7088 6.26895 46.5131 6.92197C46.4219 7.22984 46.2768 7.51908 46.0845 7.77624C45.8971 8.02185 45.6582 8.22332 45.3844 8.3664C44.7787 8.65979 44.072 8.65979 43.4664 8.3664C43.1925 8.22352 42.9534 8.02202 42.7663 7.77624C42.574 7.51908 42.4289 7.22984 42.3377 6.92197C42.1419 6.26895 42.1419 5.57287 42.3377 4.91984V4.91984ZM47.8145 3.01367H47.3512L49.1955 8.82826H49.7332L51.337 3.55662H51.3591L52.9518 8.82826H53.4823L55.3457 3.01367H54.8714L53.2484 8.33031H53.2255L51.6336 3.01367H51.0574L49.4765 8.33031H49.4537L47.8145 3.01367ZM55.5603 8.82823H55.9889V5.68339C55.9856 5.35198 56.0334 5.02204 56.1306 4.7052C56.2154 4.42394 56.3553 4.16238 56.5422 3.93577C56.7213 3.72229 56.9448 3.55057 57.1973 3.43265C57.4738 3.3078 57.7747 3.24607 58.0781 3.25192C58.3992 3.2344 58.7186 3.30887 58.9988 3.46659C59.2052 3.59403 59.376 3.77168 59.4952 3.98298C59.6027 4.1768 59.67 4.39033 59.6929 4.61077C59.7134 4.79107 59.7247 4.97228 59.7269 5.15372V8.83044H60.1562V5.23118C60.1562 5.11093 60.1562 4.96929 60.1444 4.807C60.1362 4.63771 60.1137 4.46941 60.0773 4.30388C60.0373 4.12452 59.9745 3.951 59.8906 3.78749C59.8014 3.61417 59.6808 3.45885 59.5351 3.32938C59.365 3.18253 59.1674 3.07095 58.9538 3.0011C58.6745 2.91175 58.3823 2.86962 58.0892 2.87642C57.8648 2.87665 57.6415 2.90717 57.4252 2.96716C56.9976 3.08414 56.6168 3.3311 56.3356 3.67388C56.1943 3.84726 56.0854 4.04467 56.014 4.25667H55.9911V3.01364H55.5611V8.82823H55.5603ZM61.0484 0.751841V8.82823H61.4778V0.751841H61.0484V0.751841ZM62.7816 7.09608C62.8899 7.44871 63.0652 7.7771 63.298 8.06322C63.5258 8.3398 63.811 8.56357 64.1339 8.71904C64.8595 9.04366 65.6892 9.04366 66.4148 8.71904C66.7377 8.56357 67.0229 8.3398 67.2507 8.06322C67.4835 7.7771 67.6588 7.44871 67.7671 7.09608C67.886 6.71528 67.9452 6.31837 67.9426 5.91945C67.9454 5.52244 67.8862 5.12743 67.7671 4.74871C67.6571 4.39681 67.4819 4.06874 67.2507 3.78158C67.0244 3.50135 66.739 3.27462 66.4148 3.11764C65.6891 2.79339 64.8596 2.79339 64.1339 3.11764C63.8097 3.27462 63.5243 3.50135 63.298 3.78158C63.0668 4.06874 62.8916 4.39681 62.7816 4.74871C62.6628 5.12747 62.6038 5.52248 62.6068 5.91945C62.6041 6.31886 62.6633 6.71629 62.7824 7.09756L62.7816 7.09608ZM63.1823 4.91839C63.274 4.61059 63.4194 4.3214 63.6116 4.06412C63.798 3.81666 64.0372 3.61381 64.3117 3.47027C64.9173 3.17666 65.6241 3.17666 66.2297 3.47027C66.5043 3.61381 66.7434 3.81666 66.9298 4.06412C67.1221 4.3214 67.2674 4.61059 67.3592 4.91839C67.5549 5.57141 67.5549 6.26749 67.3592 6.92052C67.2674 7.22831 67.1221 7.5175 66.9298 7.77478C66.7429 8.02073 66.5038 8.22227 66.2297 8.36494C65.6241 8.65856 64.9173 8.65856 64.3117 8.36494C64.0377 8.22227 63.7986 8.02073 63.6116 7.77478C63.4194 7.5175 63.274 7.22831 63.1823 6.92052C62.9871 6.26788 62.9873 5.57235 63.183 4.91986L63.1823 4.91839ZM73.3118 7.97837C73.3112 8.09013 73.3206 8.20172 73.3399 8.31181C73.3561 8.40709 73.3929 8.4977 73.4476 8.57738C73.5065 8.65813 73.5867 8.72094 73.6792 8.75886C73.8104 8.80925 73.9504 8.83234 74.0908 8.82673C74.2091 8.82689 74.327 8.81152 74.4413 8.78099V8.41804C74.3368 8.43724 74.231 8.44858 74.1248 8.45198C74.0446 8.45735 73.965 8.43523 73.899 8.38927C73.846 8.34706 73.8068 8.29006 73.7862 8.2255C73.7623 8.15226 73.7489 8.07601 73.7463 7.99902C73.7463 7.9164 73.7412 7.83304 73.7412 7.75042V4.37099C73.7546 3.95651 73.5777 3.55867 73.2609 3.29099C72.8151 2.97815 72.2736 2.83192 71.7309 2.87788C71.1499 2.83996 70.5745 3.0105 70.108 3.35886C69.7055 3.72909 69.4815 4.25434 69.4927 4.80107H69.9221C69.9177 4.35452 70.1097 3.92859 70.4473 3.63624C70.8097 3.36626 71.2545 3.23042 71.7058 3.25189C71.9575 3.24664 72.2086 3.27719 72.4517 3.34263C72.6321 3.39145 72.8009 3.47599 72.9481 3.59124C73.0694 3.68813 73.1662 3.81222 73.2307 3.95345C73.2915 4.09303 73.3221 4.24385 73.3207 4.39607C73.3232 4.56638 73.3118 4.73661 73.2867 4.90509C73.2689 5.03187 73.2095 5.14915 73.1178 5.23853C73.0027 5.3382 72.8649 5.40811 72.7165 5.44214C72.4777 5.50078 72.2339 5.53684 71.9884 5.54984L71.3245 5.60665C71.0799 5.63088 70.8368 5.66856 70.5963 5.71952C70.3533 5.76845 70.1203 5.85825 69.9073 5.98509C69.4348 6.26105 69.1576 6.77927 69.1903 7.3255C69.1526 7.79579 69.3414 8.25587 69.6985 8.56411C70.1175 8.85618 70.6229 8.99789 71.1326 8.96616C71.3926 8.96753 71.6514 8.93202 71.9013 8.86066C72.1231 8.79797 72.3342 8.70249 72.5276 8.57738C72.7037 8.46437 72.8617 8.32534 72.9961 8.16501C73.1205 8.01808 73.2201 7.85189 73.2912 7.67296H73.314V7.97837H73.3118ZM73.3121 6.60926C73.3026 6.75572 73.2819 6.90123 73.2501 7.0445C73.1983 7.28255 73.1003 7.50812 72.9617 7.70844C72.791 7.95757 72.5676 8.1661 72.3073 8.31926C71.9516 8.5139 71.5489 8.60608 71.144 8.58557C70.7471 8.60805 70.3538 8.49859 70.0256 8.27426C69.7418 8.04003 69.5901 7.68208 69.6191 7.31524C69.6087 7.08344 69.6637 6.85338 69.7778 6.65131C69.8795 6.48542 70.021 6.3475 70.1894 6.25C70.3666 6.14922 70.5593 6.07843 70.7596 6.04049C70.9706 5.99918 71.1816 5.96721 71.3926 5.94459L72.1148 5.87672C72.3557 5.8574 72.5951 5.82341 72.8318 5.77491C73.0172 5.74622 73.1869 5.6542 73.3121 5.5145V6.61073V6.60926ZM80.0758 8.82676H80.5051V0.751841H80.0758V4.31496H80.0529C79.9083 3.87489 79.6148 3.49898 79.223 3.25192C79.0282 3.13018 78.8171 3.03678 78.5959 2.97455C78.3718 2.91082 78.1399 2.87855 77.9069 2.87864C77.5136 2.86943 77.1234 2.9507 76.7664 3.11619C76.452 3.26718 76.1761 3.48765 75.9594 3.76094C75.7366 4.04873 75.5733 4.378 75.4791 4.72955C75.2725 5.49963 75.2687 6.31009 75.4681 7.08209C75.5575 7.42959 75.7106 7.75751 75.9195 8.04922C76.1245 8.32771 76.3911 8.55496 76.6986 8.71315C77.4834 9.07666 78.3951 9.04098 79.1492 8.61725C79.5362 8.35869 79.848 8.00238 80.0529 7.58446H80.075V8.82897L80.0758 8.82676ZM76.948 8.36866C76.6817 8.22601 76.4518 8.02409 76.2759 7.77849C76.0945 7.51957 75.9608 7.23025 75.8813 6.92423C75.7939 6.6015 75.75 6.26857 75.7507 5.93423C75.7499 5.59503 75.7897 5.25696 75.8695 4.92726C75.9415 4.61886 76.072 4.32713 76.2538 4.06784C76.4286 3.82059 76.6584 3.6173 76.9251 3.47398C77.229 3.31914 77.5668 3.24305 77.9077 3.25267C78.2436 3.24492 78.576 3.32286 78.8734 3.47915C79.1421 3.62477 79.3724 3.83209 79.5454 4.08407C79.7229 4.34648 79.8546 4.63707 79.9349 4.94349C80.0217 5.26632 80.0654 5.59921 80.0648 5.93349C80.0648 6.26386 80.0212 6.59277 79.9349 6.91169C79.8553 7.21757 79.7213 7.50666 79.5395 7.76521C79.3656 8.01205 79.1388 8.21695 78.8756 8.36497C78.5826 8.52181 78.2539 8.59986 77.9217 8.59144C77.584 8.60059 77.2493 8.52448 76.9487 8.37013L76.948 8.36866ZM84.9157 7.09608C85.0239 7.44871 85.1993 7.7771 85.4321 8.06322C85.6599 8.3398 85.9451 8.56357 86.2679 8.71904C86.9936 9.04366 87.8232 9.04366 88.5489 8.71904C88.8717 8.56357 89.1569 8.3398 89.3847 8.06322C89.6175 7.7771 89.7928 7.44871 89.9011 7.09608C90.0196 6.7152 90.0788 6.31834 90.0767 5.91945C90.0791 5.52247 90.0198 5.12752 89.9011 4.74871C89.7911 4.39681 89.6159 4.06874 89.3847 3.78158C89.1584 3.50135 88.873 3.27462 88.5489 3.11764C87.8231 2.79339 86.9936 2.79339 86.2679 3.11764C85.9437 3.27462 85.6583 3.50135 85.4321 3.78158C85.2008 4.06874 85.0257 4.39681 84.9157 4.74871C84.7965 5.12743 84.7373 5.52244 84.7401 5.91945C84.7376 6.3189 84.7971 6.71633 84.9164 7.09756L84.9157 7.09608ZM85.3156 4.91839C85.4073 4.61059 85.5527 4.3214 85.7449 4.06412C85.9313 3.81666 86.1705 3.61381 86.445 3.47027C87.0507 3.17666 87.7574 3.17666 88.3631 3.47027C88.6376 3.61381 88.8767 3.81666 89.0631 4.06412C89.2554 4.3214 89.4007 4.61059 89.4925 4.91839C89.6882 5.57141 89.6882 6.26749 89.4925 6.92052C89.4007 7.22831 89.2554 7.5175 89.0631 7.77478C88.8762 8.02073 88.6371 8.22227 88.3631 8.36494C87.7574 8.65856 87.0507 8.65856 86.445 8.36494C86.171 8.22227 85.9319 8.02073 85.7449 7.77478C85.5527 7.5175 85.4073 7.22831 85.3156 6.92052C85.1204 6.26788 85.1206 5.57235 85.3163 4.91986L85.3156 4.91839ZM91.0969 8.82824H91.5263V5.68341C91.5231 5.35206 91.5706 5.02217 91.6672 4.70521C91.7525 4.424 91.8926 4.16249 92.0796 3.93578C92.2586 3.7223 92.4822 3.55058 92.7347 3.43267C93.0112 3.30782 93.3121 3.24608 93.6155 3.25193C93.9365 3.2345 94.2559 3.30896 94.5361 3.4666C94.7426 3.59404 94.9134 3.7717 95.0326 3.983C95.1398 4.17695 95.207 4.39041 95.2303 4.61078C95.2507 4.79108 95.2621 4.97229 95.2642 5.15373V8.83045H95.6921V5.23119C95.6921 5.11095 95.6877 4.96931 95.6803 4.80701C95.6717 4.63776 95.6492 4.46949 95.6132 4.3039C95.5731 4.12454 95.5104 3.95101 95.4265 3.7875C95.3373 3.61418 95.2167 3.45886 95.071 3.32939C94.9006 3.18246 94.7028 3.07087 94.4889 3.00111C94.2099 2.9117 93.9179 2.86956 93.6251 2.87644C93.4007 2.87666 93.1773 2.90719 92.9611 2.96718C92.5335 3.08415 92.1527 3.33111 91.8715 3.6739C91.7302 3.84727 91.6212 4.04469 91.5499 4.25668H91.527V3.01365H91.0977V8.82824H91.0969ZM102.683 3.01367H101.419V1.20408H100.99V3.01367H99.917V3.38695H100.99V7.44433C100.963 7.71033 101.004 7.97868 101.108 8.22482C101.19 8.40004 101.321 8.5475 101.486 8.649C101.654 8.7461 101.841 8.8041 102.034 8.81867C102.246 8.83729 102.46 8.83926 102.672 8.82457V8.45498C102.493 8.46308 102.314 8.45914 102.136 8.44318C101.996 8.43304 101.86 8.38845 101.741 8.31334C101.629 8.23818 101.543 8.12907 101.498 8.00203C101.438 7.82362 101.412 7.63593 101.419 7.44802V3.39064H102.683V3.01367V3.01367ZM103.2 0.751121V8.82751H103.629V5.68342C103.626 5.35205 103.673 5.02211 103.77 4.70522C103.855 4.42401 103.996 4.1625 104.183 3.93579C104.362 3.72231 104.585 3.55059 104.838 3.43268C105.116 3.30747 105.42 3.24647 105.725 3.25415C106.046 3.2367 106.365 3.31117 106.645 3.46883C106.852 3.59624 107.023 3.77389 107.142 3.98522C107.249 4.17917 107.317 4.39264 107.34 4.61301C107.362 4.83432 107.374 5.01284 107.374 5.15596V8.83268H107.802V5.2312C107.802 5.11071 107.799 4.96932 107.791 4.80702C107.783 4.63771 107.76 4.46942 107.724 4.30391C107.684 4.12448 107.622 3.95091 107.538 3.78751C107.448 3.61432 107.327 3.45905 107.181 3.3294C107.011 3.18256 106.814 3.07097 106.6 3.00112C106.321 2.91178 106.029 2.86964 105.736 2.87645C105.512 2.87667 105.288 2.9072 105.072 2.96719C104.645 3.08416 104.264 3.33112 103.983 3.67391C103.841 3.84725 103.732 4.04466 103.66 4.25669H103.638V0.751858H103.209L103.2 0.751121ZM114.639 5.97702C114.639 5.94678 114.639 5.90768 114.645 5.85825C114.65 5.80882 114.65 5.76604 114.65 5.72841C114.653 5.35453 114.598 4.98249 114.487 4.62555C114.385 4.2963 114.222 3.98921 114.006 3.72038C113.794 3.45888 113.526 3.24816 113.222 3.10366C112.885 2.94736 112.516 2.86992 112.144 2.87719C111.743 2.86733 111.346 2.95465 110.986 3.13169C110.667 3.29481 110.387 3.52657 110.167 3.81038C109.943 4.10465 109.777 4.4385 109.676 4.79448C109.566 5.17491 109.511 5.56916 109.512 5.96522C109.509 6.36412 109.562 6.76147 109.67 7.14555C109.766 7.49104 109.929 7.81405 110.15 8.09571C110.366 8.36462 110.641 8.58104 110.952 8.72866C111.304 8.8905 111.689 8.96997 112.076 8.96104C112.686 8.99076 113.286 8.7978 113.764 8.41809C114.214 8.01073 114.508 7.45843 114.594 6.8571H114.165C114.068 7.34367 113.823 7.78823 113.463 8.12964C113.077 8.45103 112.583 8.61467 112.082 8.58776C111.758 8.59483 111.438 8.52504 111.147 8.38415C110.886 8.25254 110.659 8.06274 110.483 7.8294C110.301 7.5858 110.164 7.31075 110.081 7.01792C109.989 6.70175 109.944 6.37406 109.945 6.04489V5.97776H114.643L114.639 5.97702ZM109.953 5.60376C109.976 5.30214 110.037 5.00464 110.135 4.71852C110.226 4.44386 110.368 4.18867 110.553 3.96606C110.738 3.74869 110.965 3.57166 111.221 3.44597C111.509 3.31056 111.825 3.24485 112.143 3.25417C112.443 3.24872 112.74 3.31472 113.009 3.44671C113.258 3.57181 113.478 3.74773 113.655 3.96311C113.836 4.18383 113.972 4.4373 114.057 4.70966C114.149 5.00117 114.202 5.30352 114.216 5.60893H109.958L109.953 5.60376ZM32.9883 28.0565H33.9473L35.7967 23.3942H42.7481L44.5776 28.0565H45.533L39.801 13.5193H38.825L32.9883 28.0565ZM36.0789 22.6204L39.3107 14.395H39.3513L42.4615 22.6204H36.0862H36.0789ZM47.1361 17.5914H46.3837V31.8033H47.1361V25.8781H47.1767C47.4275 26.6578 47.957 27.3176 48.6639 27.7312C49.3758 28.1192 50.1763 28.3155 50.987 28.3007C51.7044 28.3175 52.4169 28.1786 53.0754 27.8935C53.6461 27.6374 54.1486 27.2504 54.542 26.764C54.9433 26.2543 55.2378 25.669 55.408 25.043C55.6052 24.3271 55.7013 23.5871 55.6935 22.8446C55.6967 22.1357 55.6008 21.4297 55.4088 20.7473C55.2348 20.1139 54.9416 19.5195 54.5449 18.996C54.1538 18.4904 53.6535 18.0799 53.0813 17.795C52.432 17.4831 51.7181 17.3297 50.998 17.3472C50.0344 17.3271 49.0959 17.6559 48.3556 18.2731C48.0598 18.5191 47.8057 18.8113 47.6031 19.1384C47.4342 19.4065 47.2978 19.6938 47.1966 19.9941H47.1361V17.5914V17.5914ZM49.1433 27.2318C48.6668 26.9842 48.2608 26.6201 47.963 26.1732C47.6607 25.7083 47.4499 25.19 47.3419 24.6461C47.2178 24.0537 47.1562 23.4499 47.1582 22.8447C47.1561 22.2381 47.2245 21.6333 47.3618 21.0425C47.4861 20.4933 47.7112 19.9721 48.0257 19.5051C48.3325 19.0564 48.741 18.6866 49.2178 18.4258C50.3484 17.8792 51.6676 17.883 52.795 18.4361C53.2789 18.7038 53.6938 19.0803 54.007 19.5361C54.3274 20.0077 54.5621 20.5321 54.7005 21.0852C55.003 22.2679 54.9994 23.5081 54.6901 24.6889C54.5488 25.2347 54.3069 25.7493 53.9768 26.2064C53.6563 26.6416 53.2391 26.9965 52.7581 27.2429C52.2104 27.5128 51.6054 27.6457 50.995 27.6302C50.3554 27.6511 49.7205 27.5135 49.147 27.2296L49.1433 27.2318ZM58.925 17.5914H58.1725V31.8033H58.925V25.8781H58.9648C59.2161 26.6575 59.7455 27.3172 60.4521 27.7312C61.1639 28.1192 61.9645 28.3154 62.7751 28.3007C63.4925 28.3175 64.205 28.1786 64.8635 27.8935C65.4346 27.6379 65.9371 27.2509 66.3301 26.764C66.7317 26.2545 67.0263 25.6691 67.1962 25.043C67.3933 24.3271 67.4894 23.5871 67.4816 22.8446C67.4848 22.1357 67.389 21.4298 67.1969 20.7473C67.0229 20.1139 66.7297 19.5195 66.333 18.996C65.9422 18.4903 65.4418 18.0797 64.8694 17.795C64.2202 17.4831 63.5062 17.3296 62.7862 17.3472C61.8225 17.3271 60.884 17.6559 60.1437 18.2731C59.8499 18.5198 59.5978 18.8122 59.3971 19.1391C59.228 19.4071 59.0915 19.6944 58.9907 19.9949H58.9294V17.5922L58.925 17.5914ZM60.9322 27.2318C60.4557 26.9842 60.0496 26.62 59.7519 26.1732C59.4499 25.7081 59.2391 25.1899 59.1307 24.6461C59.0067 24.0537 58.9451 23.4499 58.947 22.8447C58.945 22.2381 59.0133 21.6333 59.1506 21.0424C59.2753 20.4934 59.5004 19.9722 59.8146 19.5051C60.1218 19.0565 60.5305 18.6868 61.0074 18.4258C62.1378 17.8792 63.4567 17.883 64.5838 18.4361C65.0678 18.7039 65.483 19.0805 65.7966 19.5361C66.1164 20.0079 66.3509 20.5323 66.4893 21.0852C66.7918 22.2679 66.7883 23.508 66.479 24.6889C66.3377 25.2347 66.0957 25.7493 65.7656 26.2064C65.4443 26.6426 65.0258 26.998 64.5433 27.2443C63.9956 27.5142 63.3905 27.6471 62.7802 27.6316C62.1417 27.6515 61.5082 27.5134 60.9359 27.2296L60.9322 27.2318ZM85.4515 17.6725C85.4327 16.9585 85.2593 16.2571 84.9432 15.6166C84.6606 15.0654 84.2535 14.5878 83.754 14.2216C83.2334 13.8502 82.6472 13.5809 82.0263 13.4278C81.3317 13.2536 80.6178 13.1681 79.9017 13.1733C79.3194 13.1748 78.7393 13.2464 78.174 13.3865C77.6147 13.5194 77.082 13.7467 76.599 14.0585C76.1308 14.3646 75.741 14.7762 75.4607 15.2602C75.157 15.8038 75.0058 16.4194 75.0233 17.0418C74.9987 17.6368 75.1471 18.2261 75.4504 18.7385C75.735 19.1797 76.1177 19.5491 76.5688 19.8178C77.0639 20.1114 77.5975 20.3349 78.1541 20.4817C78.7502 20.645 79.3531 20.7876 79.963 20.9096C80.5866 21.0316 81.193 21.1639 81.7821 21.3065C82.331 21.4342 82.863 21.6256 83.3675 21.8767C83.8123 22.0953 84.1991 22.4161 84.4962 22.8129C84.796 23.2527 84.9456 23.7778 84.9226 24.3097C84.9441 24.8687 84.7991 25.4216 84.5057 25.898C84.2383 26.3085 83.8846 26.6559 83.4693 26.916C83.0503 27.176 82.5896 27.3619 82.1075 27.4656C81.6507 27.5697 81.1839 27.6244 80.7154 27.6286C80.0242 27.6318 79.3351 27.553 78.6624 27.394C78.0513 27.2561 77.4742 26.9964 76.9657 26.6305C76.4848 26.2781 76.0976 25.8133 75.8377 25.2768C75.5509 24.6423 75.4318 23.9448 75.4917 23.2511H74.5976C74.5603 24.07 74.717 24.8862 75.055 25.6331C75.3563 26.2639 75.8061 26.8122 76.3659 27.231C76.9493 27.6581 77.613 27.963 78.3171 28.1273C79.1029 28.315 79.9084 28.4071 80.7162 28.4017C81.3016 28.3982 81.8846 28.3267 82.4535 28.1885C83.0395 28.0531 83.5969 27.8151 84.1 27.4855C84.5964 27.1586 85.016 26.728 85.3298 26.2233C85.6719 25.6451 85.8414 24.9811 85.8181 24.3097C85.8409 23.6943 85.6931 23.0846 85.391 22.548C85.1102 22.0844 84.7237 21.6939 84.263 21.4083C83.7693 21.105 83.2357 20.8719 82.6777 20.7156C82.0876 20.5464 81.4809 20.4006 80.8578 20.2781C80.2485 20.1557 79.6455 20.0268 79.0489 19.8916C78.5016 19.7726 77.9697 19.5915 77.4636 19.3516C77.0272 19.1472 76.6444 18.8441 76.3453 18.4663C76.0464 18.0529 75.8962 17.5506 75.9189 17.0411C75.8997 16.5153 76.0338 15.9953 76.3047 15.5443C76.5536 15.1516 76.8915 14.823 77.291 14.5852C77.6932 14.3467 78.133 14.1781 78.5916 14.0866C79.0227 13.9952 79.4618 13.9472 79.9025 13.9434C80.5235 13.9382 81.1424 14.0171 81.7423 14.178C82.2675 14.3162 82.761 14.5547 83.1956 14.8803C83.5998 15.1904 83.9297 15.5869 84.1612 16.0407C84.4095 16.5487 84.5447 17.1044 84.5574 17.6696H85.4522L85.4515 17.6725ZM91.6911 17.5914H89.4219V14.3345H88.6496V17.5922H86.719V18.2642H88.6496V25.5734C88.6031 26.0511 88.6766 26.5329 88.8635 26.975C89.0107 27.2908 89.2475 27.5563 89.5444 27.7386C89.8454 27.9141 90.1825 28.0186 90.53 28.044C90.9119 28.0781 91.296 28.0816 91.6786 28.0543V27.3822C91.3566 27.3973 91.034 27.3906 90.7129 27.3623C90.4602 27.3438 90.2159 27.2633 90.0018 27.1277C89.7996 26.9929 89.6462 26.7966 89.5643 26.5678C89.4574 26.2466 89.4091 25.9087 89.4219 25.5704V18.2613H91.6985V17.5892L91.6911 17.5914ZM92.335 24.9412C92.5287 25.5755 92.8427 26.1666 93.26 26.6821C93.6698 27.1801 94.1831 27.5829 94.7642 27.8625C96.0708 28.4457 97.5637 28.4457 98.8703 27.8625C99.4514 27.5829 99.9647 27.1801 100.374 26.6821C100.792 26.1666 101.106 25.5755 101.3 24.9412C101.512 24.2557 101.619 23.5417 101.615 22.8239C101.619 22.1093 101.513 21.3984 101.3 20.7163C101.103 20.0835 100.789 19.4932 100.374 18.9761C99.9669 18.473 99.4533 18.0662 98.8703 17.7847C97.5637 17.2014 96.0708 17.2014 94.7642 17.7847C94.1812 18.0662 93.6676 18.473 93.26 18.9761C92.8456 19.4932 92.5318 20.0835 92.335 20.7163C92.1213 21.3983 92.015 22.1093 92.02 22.8239C92.0165 23.5424 92.124 24.257 92.3387 24.9426L92.335 24.9412ZM93.0571 21.0217C93.2214 20.4677 93.4829 19.9474 93.8295 19.4851C94.1647 19.0394 94.5951 18.6742 95.0895 18.4162C96.1803 17.886 97.4541 17.886 98.5449 18.4162C99.0393 18.6742 99.4698 19.0394 99.8049 19.4851C100.151 19.9477 100.413 20.468 100.578 21.0217C100.93 22.1974 100.93 23.4505 100.578 24.6262C100.413 25.18 100.151 25.7002 99.8049 26.1628C99.4698 26.6085 99.0393 26.9737 98.5449 27.2317C97.4541 27.7618 96.1803 27.7618 95.0895 27.2317C94.5951 26.9737 94.1647 26.6085 93.8295 26.1628C93.4828 25.7005 93.2212 25.1802 93.0571 24.6262C92.7054 23.4505 92.7067 22.1974 93.0608 21.0225L93.0571 21.0217ZM104.197 17.5915H103.425V28.0565H104.197V22.3356C104.205 21.9942 104.239 21.6539 104.299 21.3176C104.346 21.0528 104.42 20.7935 104.52 20.5438C104.611 20.319 104.731 20.1068 104.876 19.9123C105.031 19.7068 105.197 19.5098 105.374 19.3221C105.785 18.8984 106.3 18.5895 106.868 18.4258C107.32 18.2964 107.793 18.2551 108.26 18.3041V17.5302C107.798 17.5155 107.336 17.567 106.888 17.6829C106.466 17.7907 106.063 17.9586 105.689 18.1816C105.343 18.3876 105.034 18.6491 104.774 18.9555C104.535 19.2344 104.359 19.5615 104.258 19.9145H104.197V17.5937V17.5915ZM117.815 22.9258C117.815 22.8719 117.815 22.8004 117.826 22.7118C117.836 22.6233 117.835 22.5458 117.835 22.478C117.84 21.805 117.741 21.1353 117.54 20.4928C117.357 19.9006 117.064 19.348 116.676 18.864C116.294 18.3946 115.811 18.0166 115.264 17.7574C114.656 17.4762 113.992 17.3369 113.322 17.3502C112.601 17.3325 111.886 17.4897 111.239 17.8083C110.663 18.1015 110.159 18.5188 109.763 19.0299C109.36 19.5591 109.059 20.1598 108.878 20.8004C108.68 21.485 108.58 22.1945 108.583 22.9073C108.578 23.6266 108.673 24.3431 108.868 25.0356C109.039 25.6574 109.333 26.2387 109.732 26.7456C110.121 27.2297 110.614 27.6196 111.175 27.8861C111.809 28.1765 112.501 28.319 113.197 28.3029C114.295 28.3567 115.375 28.0096 116.236 27.3262C117.047 26.5924 117.575 25.5985 117.731 24.5163H116.958C116.784 25.3919 116.342 26.1921 115.695 26.8068C114.999 27.3858 114.111 27.6804 113.208 27.6316C112.626 27.6436 112.05 27.5171 111.527 27.2627C111.054 27.0271 110.643 26.6855 110.324 26.2646C109.995 25.8246 109.75 25.3277 109.6 24.7988C109.435 24.23 109.353 23.6405 109.355 23.0482V22.9258H117.812H117.815ZM109.38 22.2537C109.421 21.7119 109.532 21.1777 109.709 20.664C109.873 20.1697 110.129 19.7106 110.463 19.3103C110.795 18.9188 111.204 18.5999 111.665 18.3734C112.18 18.1275 112.745 18.0055 113.316 18.0171C113.856 18.0073 114.391 18.1261 114.876 18.3638C115.323 18.5884 115.718 18.9037 116.037 19.2896C116.362 19.6872 116.607 20.1435 116.76 20.6337C116.926 21.1583 117.022 21.7025 117.046 22.2522H109.383L109.38 22.2537Z" fill="white"/>
<path fill-rule="evenodd" clip-rule="evenodd" d="M18.004 7.20612C21.233 7.20612 23.2978 10.3045 23.2978 10.3045C21.3855 11.4324 20.1936 13.4701 20.1478 15.6897C20.1384 18.2198 21.7235 20.4815 24.1049 21.3361C24.1049 21.3361 20.9814 28.6933 17.4744 28.6933C15.5032 28.6933 15.3704 27.5668 12.7531 27.5668C10.4772 27.5668 9.70929 28.6933 7.97569 28.6933C4.66782 28.6933 0.393555 21.522 0.393555 15.6897C0.393555 9.6317 4.72019 7.20612 7.43347 7.20612C9.81552 7.20612 10.8077 8.59743 12.7265 8.59743C14.3384 8.59743 15.6087 7.20612 18.004 7.20612ZM17.4482 1.02856C17.924 3.99783 15.2115 7.66791 11.9693 7.55061C11.4927 3.77061 14.988 1.22774 17.4482 1.02856V1.02856Z" fill="white"/>
</svg>
