<svg width="122" height="38" viewBox="0 0 122 38" fill="none" xmlns="http://www.w3.org/2000/svg">
<path fill-rule="evenodd" clip-rule="evenodd" d="M103.036 31.5817H101.907V19.1395H103.036V31.5817ZM112.071 30.4507V24.7948C112.071 24.7948 111.757 22.4754 108.334 22.4754C104.91 22.4754 104.813 24.9836 104.813 24.9836H105.898C105.898 24.9836 105.845 23.2692 108.308 23.2692C110.77 23.2692 110.941 24.7948 110.941 24.7948V25.9264H108.683C105.811 25.9264 104.443 27.5375 104.443 29.083C104.443 30.6285 105.303 31.7262 107.408 31.7262C108.695 31.7095 109.94 31.2602 110.941 30.4507V31.5816H112.071V30.4507V30.4507ZM110.941 28.1882C110.941 29.9728 108.585 30.8676 107.5 30.8676C106.415 30.8676 105.515 30.3512 105.515 29.1628C105.515 27.9743 106.962 27.0573 108.687 27.0573H110.945V28.1882H110.941ZM113.2 22.533H114.33L117.21 30.211L119.975 22.533H121.105C121.105 22.533 118.105 32.9191 117.717 33.8442C117.329 34.7693 115.719 35.2148 114.581 35.2148C114.222 35.1946 113.872 35.0921 113.558 34.9153L113.841 34.1223C114.079 34.2276 114.339 34.2761 114.599 34.2639C115.102 34.2639 115.975 33.1006 115.975 33.1006L116.611 31.5853L113.2 22.533ZM96.6441 22.4754C95.6204 22.4056 94.6293 22.8515 94.0024 23.6639V22.533H92.873V34.9751H94.0024V30.4508C94.0371 30.5083 94.4864 31.7263 96.67 31.7263C98.8941 31.7263 100.614 30.2988 100.614 27.03C100.614 23.7613 98.5533 22.4754 96.6441 22.4754V22.4754ZM96.4879 30.9067C94.6635 30.9067 94.0402 28.2458 94.0055 28.1883V25.9265C94.0402 25.8785 94.8443 23.3216 96.6207 23.3216C98.2355 23.3216 99.5855 24.9601 99.5855 27.1009C99.5855 29.2417 98.338 30.9067 96.4879 30.9067ZM45.2315 20.1421C45.2315 20.1421 43.7627 18.6497 40.089 18.6497C38.2597 18.5758 36.478 19.2426 35.1468 20.4995C33.8157 21.7564 33.0477 23.4969 33.0166 25.3274C33.0166 28.1661 34.9818 31.7506 39.8684 31.7506C41.6896 31.6831 43.4934 31.3712 45.2315 30.8233V28.6213C45.2315 27.5391 46.5764 27.0573 46.5764 27.0573H42.0594L40.6762 27.93C41.5704 27.8017 42.4737 27.7469 43.3769 27.7663V30.4958C42.6973 30.8299 41.9483 30.9982 41.1911 30.9871C37.7109 30.9159 34.9229 28.0816 34.9088 24.6008C34.9088 20.8798 37.5719 19.3055 39.8861 19.3055C41.2835 19.3241 42.604 19.9483 43.5053 21.0163L43.0826 21.7075L43.7627 21.5253L45.2315 20.1421ZM51.4496 22.5101C50.1897 22.4669 48.9673 22.9425 48.0681 23.8259C47.1688 24.7093 46.6714 25.923 46.6921 27.1835C46.7201 29.6282 48.714 31.5932 51.1589 31.5854C54.0139 31.5854 56.0145 29.685 56.0145 27.0116C56.0564 25.7937 55.5863 24.6139 54.7184 23.7585C53.8504 22.9031 52.6638 22.4504 51.4467 22.5101H51.4496ZM51.6441 31.0033C49.4804 31.0033 48.4587 27.6682 48.4587 25.981C48.4587 24.2939 49.6051 23.0922 50.9256 23.0922C52.8097 23.0922 54.1103 25.3112 54.1103 27.9013C54.1073 28.7932 53.8048 31.0033 51.6412 31.0033H51.6441ZM61.6521 22.5145C60.3928 22.4715 59.171 22.947 58.2721 23.8299C57.3731 24.7128 56.8757 25.9258 56.8961 27.1857C56.924 29.6295 58.9174 31.5936 61.3614 31.5853C64.2148 31.5853 66.214 29.6865 66.214 27.0116C66.256 25.7946 65.7862 24.6156 64.9187 23.761C64.0512 22.9064 62.8653 22.4543 61.6491 22.5145H61.6521ZM61.8458 31.0041C59.6836 31.0041 58.6627 27.6704 58.6627 25.9877C58.6627 24.305 59.8083 23.1003 61.1281 23.1003C63.0114 23.1003 64.312 25.3186 64.312 27.9064C64.309 28.7946 64.0058 31.0041 61.8429 31.0041H61.8458ZM73.7432 30.9421C72.8071 30.2973 72.6241 29.989 72.6241 29.7094C72.6241 29.4298 72.6337 29.2041 73.2991 28.5733C74.0803 27.9826 74.5494 27.0678 74.5731 26.0887C74.6084 25.0922 74.1633 24.1393 73.3766 23.5267L74.5148 23.4883L75.6531 22.8141H71.2158C69.1166 22.7408 67.3432 24.3576 67.2226 26.4546C67.2226 27.7825 68.3506 29.3723 70.5792 29.3723C70.7094 29.374 70.8392 29.3578 70.965 29.3243C70.8759 29.5413 70.83 29.7736 70.83 30.0082C70.8739 30.4595 71.0674 30.8832 71.3796 31.2121C71.3796 31.2121 66.2385 31.2173 66.2385 34.5059C66.2385 36.4941 68.4863 37.2406 70.3284 37.2406C72.1704 37.2406 75.3248 36.2491 75.3248 33.7159C75.3055 32.5812 74.7078 31.5351 73.7403 30.9421H73.7432ZM71.3028 28.7946C69.9572 28.7946 68.8861 26.7866 68.8861 25.5731C68.8861 24.3595 69.4939 23.4927 70.5643 23.4927C71.6347 23.4927 72.9088 24.7203 72.9088 26.9599C72.9058 27.7397 72.6454 28.7946 71.2998 28.7946H71.3028ZM71.2018 36.4225C70.5791 36.4225 67.9315 36.1769 67.9315 34.0818C67.9315 31.9867 70.9841 31.7949 71.3382 31.7949C71.5588 31.7956 71.779 31.8126 71.997 31.8458C72.9376 32.6764 73.9792 33.0881 73.9792 34.3879C73.9763 36.2491 71.8207 36.4262 71.1988 36.4262L71.2018 36.4225ZM75.9368 19.1396L76.6944 17.9939L79.325 18.0079C78.6759 18.3539 78.2126 18.6571 78.1956 20.2705C78.1786 21.8838 78.1956 29.3199 78.1956 29.3199C78.2979 30.032 78.8005 30.6219 79.4873 30.8359C79.7044 30.8256 79.9216 30.8546 80.1284 30.9214L79.325 31.5854H75.9368C75.9368 31.5854 77.0603 30.886 77.0662 30.4545V19.1396H75.9368V19.1396ZM87.7405 24.8693C87.3636 23.3719 85.9651 22.3621 84.4252 22.4754C83.2511 22.4522 82.1197 22.9161 81.2998 23.7568C80.4798 24.5976 80.0445 25.7403 80.0971 26.9135C80.0971 29.1126 81.4036 31.5854 84.6591 31.5854C85.977 31.6049 87.2188 30.9692 87.9736 29.8886C87.2676 30.2803 86.4794 30.5004 85.6727 30.5312C83.8601 30.5312 81.754 28.6235 81.754 25.8202C81.754 23.9317 83.073 23.1726 83.8992 23.1726C84.3842 23.117 84.8685 23.2813 85.2196 23.6205C85.5706 23.9596 85.7514 24.4381 85.7125 24.9246C85.565 25.188 81.813 26.7158 81.813 26.7158L83.3142 26.6376L87.7405 24.8693Z" fill="white"/>
<path d="M39.3018 5.21031V5.47589C39.3018 6.11523 39.0731 6.65621 38.6157 7.09884C38.1583 7.53654 37.546 7.75539 36.7788 7.75539C35.9969 7.75539 35.3501 7.4972 34.8387 6.9808C34.3272 6.46441 34.0714 5.83244 34.0714 5.0849C34.0714 4.33736 34.3272 3.70539 34.8387 3.189C35.3501 2.67261 35.9969 2.41441 36.7788 2.41441C37.2559 2.41441 37.6936 2.52999 38.0919 2.76113C38.4903 2.99228 38.7977 3.29966 39.0141 3.68326L38.5567 3.94884C38.3944 3.63408 38.1534 3.38326 37.8337 3.19638C37.5141 3.00949 37.1624 2.91605 36.7788 2.91605C36.1346 2.91605 35.6083 3.12507 35.2001 3.5431C34.7919 3.96113 34.5878 4.47507 34.5878 5.0849C34.5878 5.69474 34.7919 6.20867 35.2001 6.62671C35.6083 7.04474 36.1346 7.25376 36.7788 7.25376C37.3592 7.25376 37.8239 7.10867 38.1731 6.81851C38.5223 6.52343 38.7214 6.14966 38.7706 5.6972H36.7198V5.21031H39.3018ZM41.8178 3.88982C42.3637 3.88982 42.8039 4.08408 43.1383 4.47261C43.4776 4.85621 43.6473 5.31113 43.6473 5.83736C43.6473 5.89146 43.6424 5.96769 43.6326 6.06605H40.394C40.4432 6.43982 40.6006 6.73736 40.8662 6.95867C41.1367 7.17507 41.4686 7.28326 41.8621 7.28326C42.1424 7.28326 42.3834 7.22671 42.585 7.11359C42.7916 6.99556 42.9465 6.8431 43.0498 6.65621L43.4776 6.90703C43.3154 7.16769 43.094 7.37425 42.8137 7.52671C42.5334 7.67917 42.2137 7.75539 41.8547 7.75539C41.2744 7.75539 40.8022 7.57343 40.4383 7.20949C40.0744 6.84556 39.8924 6.38326 39.8924 5.82261C39.8924 5.27179 40.0719 4.81195 40.4309 4.4431C40.7899 4.07425 41.2522 3.88982 41.8178 3.88982ZM41.8178 4.36195C41.4342 4.36195 41.1121 4.47753 40.8514 4.70867C40.5957 4.9349 40.4432 5.22998 40.394 5.59392H43.1457C43.0965 5.20539 42.9465 4.90294 42.6957 4.68654C42.4449 4.47015 42.1522 4.36195 41.8178 4.36195ZM46.2686 4.45048H45.2064V6.68572C45.2064 6.88736 45.2457 7.03244 45.3244 7.12097C45.4031 7.20458 45.5211 7.24884 45.6785 7.25376C45.8359 7.25376 46.0326 7.24884 46.2686 7.239V7.66687C45.7523 7.74556 45.3637 7.70867 45.1031 7.55621C44.8473 7.40376 44.7195 7.11359 44.7195 6.68572V4.45048H43.9449V3.97835H44.7195V3.0931L45.2064 2.94556V3.97835H46.2686V4.45048ZM49.4186 3.0931C49.3498 3.16195 49.2662 3.19638 49.1678 3.19638C49.0695 3.19638 48.9859 3.16195 48.917 3.0931C48.8482 3.02425 48.8137 2.94064 48.8137 2.84228C48.8137 2.74392 48.8482 2.66031 48.917 2.59146C48.9859 2.52261 49.0695 2.48818 49.1678 2.48818C49.2662 2.48818 49.3498 2.52261 49.4186 2.59146C49.4875 2.66031 49.5219 2.74392 49.5219 2.84228C49.5219 2.94064 49.4875 3.02425 49.4186 3.0931ZM48.9244 7.66687V3.97835H49.4113V7.66687H48.9244ZM52.3994 4.45048H51.3371V6.68572C51.3371 6.88736 51.3764 7.03244 51.4551 7.12097C51.5338 7.20458 51.6518 7.24884 51.8092 7.25376C51.9666 7.25376 52.1633 7.24884 52.3994 7.239V7.66687C51.883 7.74556 51.4945 7.70867 51.2338 7.55621C50.9781 7.40376 50.8502 7.11359 50.8502 6.68572V4.45048H50.0756V3.97835H50.8502V3.0931L51.3371 2.94556V3.97835H52.3994V4.45048ZM58.1461 7.20212C57.7723 7.57097 57.315 7.75539 56.774 7.75539C56.233 7.75539 55.7732 7.57097 55.3945 7.20212C55.0207 6.82835 54.8338 6.36851 54.8338 5.82261C54.8338 5.27671 55.0207 4.81933 55.3945 4.45048C55.7732 4.07671 56.233 3.88982 56.774 3.88982C57.315 3.88982 57.7723 4.07671 58.1461 4.45048C58.5248 4.81933 58.7141 5.27671 58.7141 5.82261C58.7141 6.36851 58.5248 6.82835 58.1461 7.20212ZM55.7412 6.86277C56.0215 7.1431 56.3658 7.28326 56.774 7.28326C57.1822 7.28326 57.5264 7.1431 57.8068 6.86277C58.0871 6.57753 58.2272 6.2308 58.2272 5.82261C58.2272 5.41441 58.0871 5.07015 57.8068 4.78982C57.5264 4.50458 57.1822 4.36195 56.774 4.36195C56.3658 4.36195 56.0215 4.50458 55.7412 4.78982C55.4609 5.07015 55.3207 5.41441 55.3207 5.82261C55.3207 6.2308 55.4609 6.57753 55.7412 6.86277ZM61.2551 3.88982C61.7027 3.88982 62.0543 4.02753 62.31 4.30294C62.5707 4.57343 62.701 4.93982 62.701 5.40212V7.66687H62.2141V5.40212C62.2141 5.07261 62.1256 4.81687 61.9486 4.6349C61.7764 4.45294 61.5305 4.36195 61.2109 4.36195C60.8568 4.36195 60.5691 4.47507 60.3477 4.7013C60.1264 4.92261 60.0158 5.26687 60.0158 5.73408V7.66687H59.5289V3.97835H60.0158V4.55376C60.2912 4.11113 60.7043 3.88982 61.2551 3.88982Z" fill="white"/>
<path fill-rule="evenodd" clip-rule="evenodd" d="M25.4039 19.3374L20.2702 22.2019L16.1553 18.1069L20.2702 14.0119L25.4039 16.8764C25.9049 17.0796 26.2326 17.5663 26.2326 18.1069C26.2326 18.6475 25.9049 19.1342 25.4039 19.3374V19.3374ZM15.4879 17.4408L1.97463 3.9939C2.37138 4.06444 2.75175 4.20749 3.09667 4.41586C4.75946 5.35127 13.3899 10.17 19.4147 13.5332L15.4879 17.4408ZM0.911846 31.9448C0.573186 31.5813 0.369547 31.1126 0.334961 30.6169V5.5903C0.370314 5.09596 0.573905 4.62864 0.911846 4.26612L14.8183 18.104L0.911846 31.9448ZM15.4879 18.7731L19.4147 22.683C13.3899 26.0462 4.75946 30.8648 3.09667 31.8002C2.75175 32.0086 2.37138 32.1517 1.97463 32.2222L15.4879 18.7731Z" fill="white"/>
</svg>
